<svg width="12" height="12" viewBox="0 0 12 12" fill="none" xmlns="http://www.w3.org/2000/svg">
<path d="M5.5 5.49C5.5 5.35739 5.55268 5.23021 5.64645 5.13644C5.74021 5.04268 5.86739 4.99 6 4.99C6.13261 4.99 6.25979 5.04268 6.35355 5.13644C6.44732 5.23021 6.5 5.35739 6.5 5.49V8.49C6.5 8.62261 6.44732 8.74978 6.35355 8.84355C6.25979 8.93732 6.13261 8.99 6 8.99C5.86739 8.99 5.74021 8.93732 5.64645 8.84355C5.55268 8.74978 5.5 8.62261 5.5 8.49V5.49ZM6 3.0255C5.86739 3.0255 5.74021 3.07818 5.64645 3.17194C5.55268 3.26571 5.5 3.39289 5.5 3.5255C5.5 3.65811 5.55268 3.78528 5.64645 3.87905C5.74021 3.97282 5.86739 4.0255 6 4.0255C6.13261 4.0255 6.25979 3.97282 6.35355 3.87905C6.44732 3.78528 6.5 3.65811 6.5 3.5255C6.5 3.39289 6.44732 3.26571 6.35355 3.17194C6.25979 3.07818 6.13261 3.0255 6 3.0255Z" fill="#F8F8F8"/>
<path fill-rule="evenodd" clip-rule="evenodd" d="M6 1C3.2385 1 1 3.2385 1 6C1 8.7615 3.2385 11 6 11C8.7615 11 11 8.7615 11 6C11 3.2385 8.7615 1 6 1ZM2 6C2 7.06087 2.42143 8.07828 3.17157 8.82843C3.92172 9.57857 4.93913 10 6 10C7.06087 10 8.07828 9.57857 8.82843 8.82843C9.57857 8.07828 10 7.06087 10 6C10 4.93913 9.57857 3.92172 8.82843 3.17157C8.07828 2.42143 7.06087 2 6 2C4.93913 2 3.92172 2.42143 3.17157 3.17157C2.42143 3.92172 2 4.93913 2 6Z" fill="#F8F8F8"/>
</svg>
