<svg width="38" height="37" viewBox="0 0 38 37" fill="none" xmlns="http://www.w3.org/2000/svg">
<path d="M19 1C16.6362 1 14.2956 1.46389 12.1117 2.36518C9.92784 3.26647 7.94353 4.58752 6.27208 6.25288C2.89642 9.61625 1 14.178 1 18.9345C1 26.8615 6.166 33.5869 13.312 35.9722C14.212 36.1157 14.5 35.5597 14.5 35.0755V32.0446C9.514 33.1206 8.452 29.6413 8.452 29.6413C7.624 27.561 6.454 27.005 6.454 27.005C4.816 25.893 6.58 25.9289 6.58 25.9289C8.38 26.0545 9.334 27.7762 9.334 27.7762C10.9 30.5022 13.546 29.6952 14.572 29.2647C14.734 28.099 15.202 27.3099 15.706 26.8615C11.71 26.4131 7.516 24.8708 7.516 18.0377C7.516 16.047 8.2 14.4509 9.37 13.1775C9.19 12.7291 8.56 10.864 9.55 8.44281C9.55 8.44281 11.062 7.95858 14.5 10.2721C15.922 9.87756 17.47 9.68028 19 9.68028C20.53 9.68028 22.078 9.87756 23.5 10.2721C26.938 7.95858 28.45 8.44281 28.45 8.44281C29.44 10.864 28.81 12.7291 28.63 13.1775C29.8 14.4509 30.484 16.047 30.484 18.0377C30.484 24.8887 26.272 26.3952 22.258 26.8436C22.906 27.3995 23.5 28.4935 23.5 30.1615V35.0755C23.5 35.5597 23.788 36.1336 24.706 35.9722C31.852 33.569 37 26.8615 37 18.9345C37 16.5793 36.5344 14.2472 35.6298 12.0712C34.7252 9.89534 33.3994 7.91825 31.7279 6.25288C30.0565 4.58752 28.0722 3.26647 25.8883 2.36518C23.7044 1.46389 21.3638 1 19 1Z" fill="#853BCE"/>
</svg>
